<?xml version="1.0" standalone="no"?>
<!DOCTYPE svg PUBLIC "-//W3C//DTD SVG 20010904//EN"
 "http://www.w3.org/TR/2001/REC-SVG-20010904/DTD/svg10.dtd">
<svg version="1.0" xmlns="http://www.w3.org/2000/svg"
 width="197.000000pt" height="197.000000pt" viewBox="0 0 197.000000 197.000000"
 preserveAspectRatio="xMidYMid meet">
<metadata>
Created by potrace 1.11, written by Peter Selinger 2001-2013
</metadata>
<g transform="translate(0.000000,197.000000) scale(0.100000,-0.100000)"
fill="#000000" stroke="none">
<path d="M894 1921 c-22 -9 -52 -24 -67 -33 -14 -10 -29 -18 -32 -18 -25 0
-153 -139 -148 -161 2 -5 -2 -9 -7 -9 -6 0 -10 -9 -10 -20 0 -11 -4 -20 -8
-20 -5 0 -15 -26 -22 -57 -18 -75 -17 -73 -20 -75 -2 -4 -9 -39 -26 -128 -8
-49 -33 -121 -50 -147 -8 -12 -14 -27 -14 -32 0 -6 -15 -30 -32 -54 -33 -43
-65 -68 -122 -94 -28 -13 -31 -12 -56 17 -30 36 -55 38 -72 8 -7 -13 -13 -25
-13 -28 0 -3 -8 -18 -16 -35 -44 -85 -69 -314 -46 -429 8 -37 98 -226 108
-226 4 0 11 -10 15 -22 14 -46 132 -145 232 -194 53 -27 103 -49 112 -50 8 -2
47 -14 87 -28 39 -14 87 -27 107 -28 20 -2 36 -5 36 -8 0 -6 30 -10 97 -14 18
-1 35 -5 39 -9 4 -3 14 -2 24 3 10 5 20 7 23 3 8 -8 87 -10 87 -2 0 3 10 5 23
4 29 -2 144 20 182 35 17 7 39 16 50 20 11 4 36 15 57 24 20 9 39 16 43 16 19
0 126 80 172 128 56 58 116 146 106 156 -3 3 2 8 11 12 9 3 14 10 11 14 -3 5
-1 19 4 32 5 14 12 42 15 64 4 21 11 66 16 99 11 67 13 225 4 249 -7 17 -44
22 -60 7 -5 -5 -19 -12 -32 -16 -21 -6 -22 -4 -18 37 16 150 20 204 20 298 1
104 1 105 31 130 54 45 86 82 82 93 -4 15 -109 87 -118 81 -4 -2 -12 3 -19 11
-7 8 -18 15 -25 15 -7 0 -18 12 -24 28 -13 34 -44 86 -53 90 -5 2 -8 9 -8 16
0 6 -33 43 -73 81 -76 72 -178 136 -251 157 -22 6 -48 13 -56 16 -8 3 -69 6
-135 7 -89 1 -131 -3 -161 -14z"/>
</g>
</svg>
